<svg width="25" height="38" viewBox="0 0 25 38" fill="none" xmlns="http://www.w3.org/2000/svg">
<path d="M24.2175 4.1024C23.8932 3.60575 23.4194 3.59149 22.8795 3.57524C22.8183 3.57339 22.7563 3.57153 22.6936 3.56893C22.6458 3.56673 22.5931 3.56758 22.538 3.56847C22.319 3.57198 22.0629 3.57609 21.9339 3.39212C21.7843 3.17883 21.7985 2.76664 21.8102 2.42636C21.8139 2.31883 21.8173 2.21841 21.8153 2.1338C21.7943 1.34332 21.7504 0.503632 21.4453 0.222925C21.2152 0.0123145 20.5268 0.0414907 19.892 0.0683991C19.6862 0.0771221 19.486 0.0856034 19.3089 0.0856034H5.79596C5.52389 0.0856034 5.23869 0.0634485 4.95847 0.0416809C4.41245 -0.000734203 3.88532 -0.0416808 3.51099 0.0856034C2.96774 0.271231 2.93096 1.24667 2.89632 2.16519L2.89446 2.21461C2.86538 2.97288 2.67745 3.55799 2.05465 3.49906C1.33028 3.43161 0.609496 3.41035 0.281987 4.06594C-0.10481 4.84162 -0.0250371 5.65358 0.117848 7.10793C0.138258 7.31567 0.159957 7.53653 0.181767 7.77226H24.4264C24.4403 7.59996 24.455 7.42986 24.4695 7.26253C24.5831 5.95406 24.682 4.81402 24.2175 4.1024Z" fill="#8047F8"/>
<path fill-rule="evenodd" clip-rule="evenodd" d="M2.06986 9.21468C2.44851 14.3395 2.82303 19.4702 3.19756 24.6009L3.19779 24.604C3.40114 27.3898 3.6045 30.1757 3.80852 32.9606H4.58211C4.63483 33.3966 4.69514 33.9347 4.75873 34.5022C4.88782 35.654 5.03044 36.9264 5.15033 37.7083H5.23589C6.02385 37.42 11.4711 35.0917 11.4736 25.8219C11.4726 25.7954 11.4735 25.769 11.4762 25.7427H10.1304C10.0653 25.7421 10.0021 25.7204 9.95069 25.6808C9.89926 25.6413 9.86239 25.5861 9.84575 25.5239C9.71461 25.1999 9.60887 24.8665 9.52947 24.5265C8.73776 24.9736 8.10905 25.6564 7.73294 26.4775C7.37593 25.6365 7.3292 24.6983 7.60093 23.8267C7.87265 22.9552 8.44554 22.2057 9.2195 21.7093C9.22947 19.0044 10.2423 16.3968 12.0661 14.3804L12.0946 14.3554C12.1476 14.3095 12.2155 14.284 12.2858 14.2835C12.3266 14.2838 12.3667 14.2925 12.4039 14.309C12.4415 14.3257 12.4751 14.35 12.5026 14.3804C14.3478 16.3996 15.3552 19.0322 15.3239 21.7531C16.1123 22.2357 16.6969 22.9846 16.9691 23.8609C17.2413 24.7372 17.1827 25.6813 16.8041 26.5182C16.4301 25.6957 15.8008 25.0124 15.0076 24.5671C14.9592 24.8966 14.8699 25.219 14.7419 25.527C14.6977 25.6583 14.6091 25.7427 14.5205 25.7427H13.0853C13.0876 25.7585 13.0892 25.7743 13.0901 25.7901L13.0907 25.7938V25.8014C13.0912 25.8151 13.0912 25.8287 13.0907 25.8424C13.1103 35.3784 18.902 37.5428 19.3902 37.7083H19.5572C19.5998 36.9573 19.7386 35.9209 19.8739 34.9105C19.9671 34.2142 20.0587 33.5303 20.116 32.9606H20.8985C21.149 29.4527 21.4066 25.9546 21.6642 22.4564L21.6644 22.4545L21.6644 22.4535C21.994 17.979 22.3235 13.5042 22.6381 9.0087H2.11997C2.06091 9.02024 2.06494 9.11686 2.06986 9.21468ZM12.2858 14.2835L12.2844 14.2834H12.2875L12.2858 14.2835Z" fill="#8047F8"/>
</svg>
